<?xml version="1.0" encoding="UTF-8" standalone="no"?>
<!-- Created with Inkscape (http://www.inkscape.org/) -->

<svg
   width="204.67882mm"
   height="113.44199mm"
   viewBox="0 0 204.67882 113.44199"
   version="1.1"
   id="svg1"
   xmlns="http://www.w3.org/2000/svg"
   xmlns:svg="http://www.w3.org/2000/svg">
  <defs
     id="defs1" />
  <g
     id="layer1"
     transform="translate(-2.955531,-50.050356)">
    <path
       id="calender"
       style="fill:#ff5555;stroke:none;stroke-width:0.1"
       d="m 20.329741,50.050356 c -2.496528,0 -4.506483,2.013972 -4.506483,4.51503 v 14.774809 c 0,2.50106 2.009955,4.514496 4.506483,4.514496 2.496527,0 4.506482,-2.013436 4.506482,-4.514496 V 54.565386 c 0,-2.501058 -2.009955,-4.51503 -4.506482,-4.51503 z m 21.750348,0 c -2.496528,0 -4.506482,2.013972 -4.506482,4.51503 v 14.774809 c 0,2.50106 2.009954,4.514496 4.506482,4.514496 2.496528,0 4.506483,-2.013436 4.506483,-4.514496 V 54.565386 c 0,-2.501058 -2.009955,-4.51503 -4.506483,-4.51503 z m 21.750349,0 c -2.496528,0 -4.505949,2.013972 -4.505949,4.51503 v 14.774809 c 0,2.50106 2.009421,4.514496 4.505949,4.514496 2.496527,0 4.506482,-2.013436 4.506482,-4.514496 V 54.565386 c 0,-2.501058 -2.009955,-4.51503 -4.506482,-4.51503 z m 21.750347,0 c -2.496529,0 -4.505947,2.013972 -4.505947,4.51503 v 14.774809 c 0,2.50106 2.009418,4.514496 4.505947,4.514496 2.496528,0 4.506478,-2.013436 4.506478,-4.514496 V 54.565386 c 0,-2.501058 -2.00995,-4.51503 -4.506478,-4.51503 z m -59.184708,9.765649 v 9.875157 c 0,3.360642 -2.705698,6.065803 -6.066336,6.065803 -3.360642,0 -6.066337,-2.705161 -6.066337,-6.065803 V 59.876368 C 7.9022187,60.473352 2.955531,65.793758 2.955531,72.316205 v 78.676475 c 0,6.92498 5.5752369,12.49967 12.5002,12.49967 h 74.999604 c 6.924949,0 12.500195,-5.57469 12.500195,-12.49967 V 72.316205 c 0,-6.52246 -4.947211,-11.842871 -11.308404,-12.439837 v 9.814794 c 0,3.360642 -2.705694,6.065803 -6.066341,6.065803 -3.360647,0 -6.065802,-2.705161 -6.065802,-6.065803 v -9.875157 h -9.618209 v 9.875157 c 0,3.360642 -2.705695,6.065803 -6.066336,6.065803 -3.360642,0 -6.065803,-2.705161 -6.065803,-6.065803 v -9.875157 h -9.61821 v 9.875157 c 0,3.360642 -2.705697,6.065803 -6.066336,6.065803 -3.360641,0 -6.066337,-2.705161 -6.066337,-6.065803 v -9.875157 z m -8.319044,25.193779 h 69.756991 c 3.360657,0 6.065804,2.705689 6.065804,6.066336 v 57.14835 c 0,3.36065 -2.705147,6.06635 -6.065804,6.06635 H 18.077033 c -3.360647,0 -6.065802,-2.7057 -6.065802,-6.06635 V 91.07612 c 0,-3.360647 2.705155,-6.066336 6.065802,-6.066336 z" />
    <text
       xml:space="preserve"
       style="font-weight:bold;font-size:69.5525px;font-family:Frutiger;-inkscape-font-specification:'Frutiger Bold';text-align:center;letter-spacing:0px;text-anchor:middle;fill:#ff5555;stroke:none;stroke-width:0.1"
       x="56.57225"
       y="143.96959"
       id="day"><tspan
         id="tspan13"
         style="font-size:69.5525px;stroke-width:0.1"
         x="56.57225"
         y="143.96959">$$day$$</tspan></text>
    <rect
       style="fill:#ff5555;stroke:none;stroke-width:0.1"
       id="minute"
       width="10"
       height="40"
       x="152.64183"
       y="77.79232"
       ry="5"
       rx="5" />
    <rect
       style="fill:#ff5555;fill-opacity:1;stroke:none;stroke-width:0.1"
       id="hour"
       width="10"
       height="28"
       x="152.64183"
       y="89.716133"
       rx="5"
       ry="5" />
    <path
       id="clock"
       style="fill:#ff5555;stroke:none;stroke-width:0.0999999"
       d="m 157.63431,63.492249 a 50,50 0 0 0 -50.00005,50.000051 50,50 0 0 0 50.00005,50.00005 50,50 0 0 0 50.00004,-50.00005 50,50 0 0 0 -50.00004,-50.000051 z m 0,9.999906 a 40,40 0 0 1 40.00014,40.000145 40,40 0 0 1 -40.00014,40.00014 40,40 0 0 1 -40.00015,-40.00014 40,40 0 0 1 40.00015,-40.000145 z" />
    <text
       xml:space="preserve"
       style="font-weight:bold;font-size:30.9034px;font-family:Frutiger;-inkscape-font-specification:'Frutiger Bold';text-align:center;letter-spacing:0px;text-anchor:middle;fill:#ff5555;stroke-width:0.0999997"
       x="118.51225"
       y="71.620926"
       id="AM"><tspan
         id="tspan1"
         style="stroke-width:0.0999997"
         x="118.51225"
         y="71.620926">$$AM$$</tspan></text>
    <text
       xml:space="preserve"
       style="font-weight:bold;font-size:30.9034px;font-family:Frutiger;-inkscape-font-specification:'Frutiger Bold';text-align:center;letter-spacing:0px;text-anchor:middle;fill:#ff5555;stroke-width:0.0999997"
       x="199.63037"
       y="71.620926"
       id="PM"><tspan
         id="tspan2"
         style="stroke-width:0.0999997"
         x="199.63037"
         y="71.620926">$$PM$$</tspan></text>
  </g>
</svg>
